<svg width="54" height="54" viewBox="0 0 54 54" fill="none" xmlns="http://www.w3.org/2000/svg">
<rect width="54" height="54" rx="6" fill="white"/>
<g clip-path="url(#clip0_577_5333)">
<path d="M27 11C18.1637 11 11 18.1637 11 27C11 35.8363 18.1637 43 27 43C35.8363 43 43 35.8363 43 27C43 18.1637 35.8363 11 27 11Z" fill="#212121"/>
<path d="M27.1879 39.1453H27.1809C23.5566 39.1208 20.7703 37.9258 18.8982 35.5927C17.2317 33.5167 16.3726 30.6281 16.3438 27.0082V26.9906C16.3726 23.3698 17.2317 20.4821 18.8982 18.4061C20.7694 16.073 23.5566 14.878 27.18 14.8535H27.194C29.9724 14.8719 32.2968 15.5866 34.1032 16.9758C35.8012 18.282 36.9962 20.1435 37.6558 22.5099L35.5912 23.0855C34.4741 19.078 31.6468 17.0292 27.1869 16.9968C24.2423 17.0178 22.0159 17.9434 20.5681 19.7473C19.2122 21.4365 18.5114 23.8764 18.4861 26.9986C18.5123 30.1216 19.213 32.5615 20.5681 34.25C22.0159 36.0538 24.2423 36.9793 27.1869 37.0003C29.8411 36.981 31.5977 36.3626 33.0587 34.9314C34.726 33.2981 34.6954 31.2948 34.1618 30.0762C33.8477 29.358 33.2773 28.7596 32.5084 28.3064C32.3151 29.6729 31.8802 30.7821 31.2084 31.6176C30.3126 32.733 29.0424 33.3428 27.4345 33.4293C26.2176 33.4949 25.0454 33.2072 24.1356 32.6184C23.0596 31.922 22.4297 30.8565 22.3623 29.6178C22.2967 28.4132 22.7744 27.3056 23.7069 26.499C24.5983 25.7283 25.8519 25.2761 27.333 25.193C28.4248 25.1317 29.4456 25.1798 30.3896 25.3373C30.2644 24.5859 30.0108 23.9901 29.6329 23.5597C29.1132 22.9675 28.3092 22.6648 27.2446 22.6578H27.2149C26.3602 22.6578 25.1993 22.8922 24.4592 23.9927L22.6807 22.7968C23.671 21.3245 25.2797 20.5145 27.2139 20.5145H27.2577C30.4919 20.5346 32.4174 22.5125 32.609 25.9671C32.7191 26.0136 32.8268 26.0616 32.9335 26.1115C34.4426 26.821 35.5457 27.8953 36.1248 29.218C36.9314 31.0621 37.0058 34.0671 34.5572 36.464C32.6868 38.2958 30.4158 39.1226 27.1939 39.1445H27.1869L27.1877 39.1453H27.1879ZM28.2027 27.3117C27.9578 27.3117 27.7093 27.3187 27.4556 27.3336C25.5966 27.4386 24.4384 28.2898 24.504 29.5022C24.5731 30.7725 25.9746 31.3629 27.3209 31.2903C28.5604 31.2238 30.1737 30.7418 30.4439 27.5347C29.7598 27.3887 29.0076 27.3116 28.2027 27.3116V27.3117Z" fill="white"/>
</g>
<defs>
<clipPath id="clip0_577_5333">
<rect width="32" height="32" fill="white" transform="translate(11 11)"/>
</clipPath>
</defs>
</svg>
